<svg width="21" height="17" viewBox="0 0 21 17" fill="none" xmlns="http://www.w3.org/2000/svg">
<path d="M0 2.25C0 1.00898 1.00898 0 2.25 0H12.375C13.616 0 14.625 1.00898 14.625 2.25V3.375H16.4074C17.0051 3.375 17.5781 3.61055 18 4.03242L19.5926 5.625C20.0145 6.04688 20.25 6.61992 20.25 7.21758V12.375C20.25 13.616 19.241 14.625 18 14.625H17.884C17.5184 15.9223 16.323 16.875 14.9062 16.875C13.4895 16.875 12.2977 15.9223 11.9285 14.625H8.32148C7.95586 15.9223 6.76055 16.875 5.34375 16.875C3.92695 16.875 2.73516 15.9223 2.36602 14.625H2.25C1.00898 14.625 0 13.616 0 12.375V2.25ZM18 9V7.21758L16.4074 5.625H14.625V9H18ZM6.75 13.7812C6.75 13.4083 6.60184 13.0506 6.33812 12.7869C6.0744 12.5232 5.71671 12.375 5.34375 12.375C4.97079 12.375 4.6131 12.5232 4.34938 12.7869C4.08566 13.0506 3.9375 13.4083 3.9375 13.7812C3.9375 14.1542 4.08566 14.5119 4.34938 14.7756C4.6131 15.0393 4.97079 15.1875 5.34375 15.1875C5.71671 15.1875 6.0744 15.0393 6.33812 14.7756C6.60184 14.5119 6.75 14.1542 6.75 13.7812ZM14.9062 15.1875C15.2792 15.1875 15.6369 15.0393 15.9006 14.7756C16.1643 14.5119 16.3125 14.1542 16.3125 13.7812C16.3125 13.4083 16.1643 13.0506 15.9006 12.7869C15.6369 12.5232 15.2792 12.375 14.9062 12.375C14.5333 12.375 14.1756 12.5232 13.9119 12.7869C13.6482 13.0506 13.5 13.4083 13.5 13.7812C13.5 14.1542 13.6482 14.5119 13.9119 14.7756C14.1756 15.0393 14.5333 15.1875 14.9062 15.1875Z" fill="#16A34A"/>
</svg>
